<?xml version="1.0" encoding="utf-8" standalone="no"?>
<!DOCTYPE svg PUBLIC "-//W3C//DTD SVG 1.1//EN"
  "http://www.w3.org/Graphics/SVG/1.1/DTD/svg11.dtd">
<svg xmlns:xlink="http://www.w3.org/1999/xlink" width="615.1pt" height="230.662125pt" viewBox="0 0 615.1 230.662125" xmlns="http://www.w3.org/2000/svg" version="1.1">
 <metadata>
  <rdf:RDF xmlns:dc="http://purl.org/dc/elements/1.1/" xmlns:cc="http://creativecommons.org/ns#" xmlns:rdf="http://www.w3.org/1999/02/22-rdf-syntax-ns#">
   <cc:Work>
    <dc:type rdf:resource="http://purl.org/dc/dcmitype/StillImage"/>
    <dc:date>2025-10-08T13:05:58.702281</dc:date>
    <dc:format>image/svg+xml</dc:format>
    <dc:creator>
     <cc:Agent>
      <dc:title>Matplotlib v3.9.4, https://matplotlib.org/</dc:title>
     </cc:Agent>
    </dc:creator>
   </cc:Work>
  </rdf:RDF>
 </metadata>
 <defs>
  <style type="text/css">*{stroke-linejoin: round; stroke-linecap: butt}</style>
 </defs>
 <g id="figure_1">
  <g id="patch_1">
   <path d="M 0 230.662125 
L 615.1 230.662125 
L 615.1 0 
L 0 0 
z
" style="fill: #ffffff"/>
  </g>
  <g id="axes_1">
   <g id="patch_2">
    <path d="M 105.7 206.784 
L 214.873913 206.784 
L 214.873913 40.464 
L 105.7 40.464 
z
" style="fill: #ffffff"/>
   </g>
   <g id="patch_3">
    <path d="M 105.7 52.1064 
L 168.085093 52.1064 
L 168.085093 62.0856 
L 105.7 62.0856 
z
" clip-path="url(#p1576d173ca)" style="fill: #4a4c7e; stroke: #1a1a1a; stroke-linejoin: miter"/>
   </g>
   <g id="patch_4">
    <path d="M 105.7 85.3704 
L 105.7 85.3704 
L 105.7 95.3496 
L 105.7 95.3496 
z
" clip-path="url(#p1576d173ca)" style="fill: #367182; stroke: #1a1a1a; stroke-linejoin: miter"/>
   </g>
   <g id="patch_5">
    <path d="M 105.7 118.6344 
L 168.085093 118.6344 
L 168.085093 128.6136 
L 105.7 128.6136 
z
" clip-path="url(#p1576d173ca)" style="fill: #33977c; stroke: #1a1a1a; stroke-linejoin: miter"/>
   </g>
   <g id="patch_6">
    <path d="M 105.7 151.8984 
L 126.495031 151.8984 
L 126.495031 161.8776 
L 105.7 161.8776 
z
" clip-path="url(#p1576d173ca)" style="fill: #80c161; stroke: #1a1a1a; stroke-linejoin: miter"/>
   </g>
   <g id="patch_7">
    <path d="M 105.7 185.1624 
L 209.675155 185.1624 
L 209.675155 195.1416 
L 105.7 195.1416 
z
" clip-path="url(#p1576d173ca)" style="fill: #a74779; stroke: #1a1a1a; stroke-linejoin: miter"/>
   </g>
   <g id="matplotlib.axis_1">
    <g id="xtick_1">
     <g id="line2d_1">
      <defs>
       <path id="m7e8eba1cc5" d="M 0 0 
L 0 3.5 
" style="stroke: #000000; stroke-width: 0.8"/>
      </defs>
      <g>
       <use xlink:href="#m7e8eba1cc5" x="105.7" y="206.784" style="stroke: #000000; stroke-width: 0.8"/>
      </g>
     </g>
     <g id="text_1">
      <!-- 0 -->
      <g transform="translate(102.51875 221.382438) scale(0.1 -0.1)">
       <defs>
        <path id="DejaVuSans-30" d="M 2034 4250 
Q 1547 4250 1301 3770 
Q 1056 3291 1056 2328 
Q 1056 1369 1301 889 
Q 1547 409 2034 409 
Q 2525 409 2770 889 
Q 3016 1369 3016 2328 
Q 3016 3291 2770 3770 
Q 2525 4250 2034 4250 
z
M 2034 4750 
Q 2819 4750 3233 4129 
Q 3647 3509 3647 2328 
Q 3647 1150 3233 529 
Q 2819 -91 2034 -91 
Q 1250 -91 836 529 
Q 422 1150 422 2328 
Q 422 3509 836 4129 
Q 1250 4750 2034 4750 
z
" transform="scale(0.015625)"/>
       </defs>
       <use xlink:href="#DejaVuSans-30"/>
      </g>
     </g>
    </g>
    <g id="xtick_2">
     <g id="line2d_2">
      <g>
       <use xlink:href="#m7e8eba1cc5" x="147.290062" y="206.784" style="stroke: #000000; stroke-width: 0.8"/>
      </g>
     </g>
     <g id="text_2">
      <!-- 2 -->
      <g transform="translate(144.108812 221.382438) scale(0.1 -0.1)">
       <defs>
        <path id="DejaVuSans-32" d="M 1228 531 
L 3431 531 
L 3431 0 
L 469 0 
L 469 531 
Q 828 903 1448 1529 
Q 2069 2156 2228 2338 
Q 2531 2678 2651 2914 
Q 2772 3150 2772 3378 
Q 2772 3750 2511 3984 
Q 2250 4219 1831 4219 
Q 1534 4219 1204 4116 
Q 875 4013 500 3803 
L 500 4441 
Q 881 4594 1212 4672 
Q 1544 4750 1819 4750 
Q 2544 4750 2975 4387 
Q 3406 4025 3406 3419 
Q 3406 3131 3298 2873 
Q 3191 2616 2906 2266 
Q 2828 2175 2409 1742 
Q 1991 1309 1228 531 
z
" transform="scale(0.015625)"/>
       </defs>
       <use xlink:href="#DejaVuSans-32"/>
      </g>
     </g>
    </g>
    <g id="xtick_3">
     <g id="line2d_3">
      <g>
       <use xlink:href="#m7e8eba1cc5" x="188.880124" y="206.784" style="stroke: #000000; stroke-width: 0.8"/>
      </g>
     </g>
     <g id="text_3">
      <!-- 4 -->
      <g transform="translate(185.698874 221.382438) scale(0.1 -0.1)">
       <defs>
        <path id="DejaVuSans-34" d="M 2419 4116 
L 825 1625 
L 2419 1625 
L 2419 4116 
z
M 2253 4666 
L 3047 4666 
L 3047 1625 
L 3713 1625 
L 3713 1100 
L 3047 1100 
L 3047 0 
L 2419 0 
L 2419 1100 
L 313 1100 
L 313 1709 
L 2253 4666 
z
" transform="scale(0.015625)"/>
       </defs>
       <use xlink:href="#DejaVuSans-34"/>
      </g>
     </g>
    </g>
   </g>
   <g id="matplotlib.axis_2">
    <g id="ytick_1">
     <g id="line2d_4">
      <defs>
       <path id="mc942444423" d="M 0 0 
L -3.5 0 
" style="stroke: #000000; stroke-width: 0.8"/>
      </defs>
      <g>
       <use xlink:href="#mc942444423" x="105.7" y="57.096" style="stroke: #000000; stroke-width: 0.8"/>
      </g>
     </g>
     <g id="text_4">
      <!-- Augur -->
      <g transform="translate(68.725 60.895219) scale(0.1 -0.1)">
       <defs>
        <path id="DejaVuSans-41" d="M 2188 4044 
L 1331 1722 
L 3047 1722 
L 2188 4044 
z
M 1831 4666 
L 2547 4666 
L 4325 0 
L 3669 0 
L 3244 1197 
L 1141 1197 
L 716 0 
L 50 0 
L 1831 4666 
z
" transform="scale(0.015625)"/>
        <path id="DejaVuSans-75" d="M 544 1381 
L 544 3500 
L 1119 3500 
L 1119 1403 
Q 1119 906 1312 657 
Q 1506 409 1894 409 
Q 2359 409 2629 706 
Q 2900 1003 2900 1516 
L 2900 3500 
L 3475 3500 
L 3475 0 
L 2900 0 
L 2900 538 
Q 2691 219 2414 64 
Q 2138 -91 1772 -91 
Q 1169 -91 856 284 
Q 544 659 544 1381 
z
M 1991 3584 
L 1991 3584 
z
" transform="scale(0.015625)"/>
        <path id="DejaVuSans-67" d="M 2906 1791 
Q 2906 2416 2648 2759 
Q 2391 3103 1925 3103 
Q 1463 3103 1205 2759 
Q 947 2416 947 1791 
Q 947 1169 1205 825 
Q 1463 481 1925 481 
Q 2391 481 2648 825 
Q 2906 1169 2906 1791 
z
M 3481 434 
Q 3481 -459 3084 -895 
Q 2688 -1331 1869 -1331 
Q 1566 -1331 1297 -1286 
Q 1028 -1241 775 -1147 
L 775 -588 
Q 1028 -725 1275 -790 
Q 1522 -856 1778 -856 
Q 2344 -856 2625 -561 
Q 2906 -266 2906 331 
L 2906 616 
Q 2728 306 2450 153 
Q 2172 0 1784 0 
Q 1141 0 747 490 
Q 353 981 353 1791 
Q 353 2603 747 3093 
Q 1141 3584 1784 3584 
Q 2172 3584 2450 3431 
Q 2728 3278 2906 2969 
L 2906 3500 
L 3481 3500 
L 3481 434 
z
" transform="scale(0.015625)"/>
        <path id="DejaVuSans-72" d="M 2631 2963 
Q 2534 3019 2420 3045 
Q 2306 3072 2169 3072 
Q 1681 3072 1420 2755 
Q 1159 2438 1159 1844 
L 1159 0 
L 581 0 
L 581 3500 
L 1159 3500 
L 1159 2956 
Q 1341 3275 1631 3429 
Q 1922 3584 2338 3584 
Q 2397 3584 2469 3576 
Q 2541 3569 2628 3553 
L 2631 2963 
z
" transform="scale(0.015625)"/>
       </defs>
       <use xlink:href="#DejaVuSans-41"/>
       <use xlink:href="#DejaVuSans-75" x="68.408203"/>
       <use xlink:href="#DejaVuSans-67" x="131.787109"/>
       <use xlink:href="#DejaVuSans-75" x="195.263672"/>
       <use xlink:href="#DejaVuSans-72" x="258.642578"/>
      </g>
     </g>
    </g>
    <g id="ytick_2">
     <g id="line2d_5">
      <g>
       <use xlink:href="#mc942444423" x="105.7" y="90.36" style="stroke: #000000; stroke-width: 0.8"/>
      </g>
     </g>
     <g id="text_5">
      <!-- #DEGs Wilcoxon -->
      <g transform="translate(15.579687 94.159219) scale(0.1 -0.1)">
       <defs>
        <path id="DejaVuSans-23" d="M 3272 2816 
L 2363 2816 
L 2100 1772 
L 3016 1772 
L 3272 2816 
z
M 2803 4594 
L 2478 3297 
L 3391 3297 
L 3719 4594 
L 4219 4594 
L 3897 3297 
L 4872 3297 
L 4872 2816 
L 3775 2816 
L 3519 1772 
L 4513 1772 
L 4513 1294 
L 3397 1294 
L 3072 0 
L 2572 0 
L 2894 1294 
L 1978 1294 
L 1656 0 
L 1153 0 
L 1478 1294 
L 494 1294 
L 494 1772 
L 1594 1772 
L 1856 2816 
L 850 2816 
L 850 3297 
L 1978 3297 
L 2297 4594 
L 2803 4594 
z
" transform="scale(0.015625)"/>
        <path id="DejaVuSans-44" d="M 1259 4147 
L 1259 519 
L 2022 519 
Q 2988 519 3436 956 
Q 3884 1394 3884 2338 
Q 3884 3275 3436 3711 
Q 2988 4147 2022 4147 
L 1259 4147 
z
M 628 4666 
L 1925 4666 
Q 3281 4666 3915 4102 
Q 4550 3538 4550 2338 
Q 4550 1131 3912 565 
Q 3275 0 1925 0 
L 628 0 
L 628 4666 
z
" transform="scale(0.015625)"/>
        <path id="DejaVuSans-45" d="M 628 4666 
L 3578 4666 
L 3578 4134 
L 1259 4134 
L 1259 2753 
L 3481 2753 
L 3481 2222 
L 1259 2222 
L 1259 531 
L 3634 531 
L 3634 0 
L 628 0 
L 628 4666 
z
" transform="scale(0.015625)"/>
        <path id="DejaVuSans-47" d="M 3809 666 
L 3809 1919 
L 2778 1919 
L 2778 2438 
L 4434 2438 
L 4434 434 
Q 4069 175 3628 42 
Q 3188 -91 2688 -91 
Q 1594 -91 976 548 
Q 359 1188 359 2328 
Q 359 3472 976 4111 
Q 1594 4750 2688 4750 
Q 3144 4750 3555 4637 
Q 3966 4525 4313 4306 
L 4313 3634 
Q 3963 3931 3569 4081 
Q 3175 4231 2741 4231 
Q 1884 4231 1454 3753 
Q 1025 3275 1025 2328 
Q 1025 1384 1454 906 
Q 1884 428 2741 428 
Q 3075 428 3337 486 
Q 3600 544 3809 666 
z
" transform="scale(0.015625)"/>
        <path id="DejaVuSans-73" d="M 2834 3397 
L 2834 2853 
Q 2591 2978 2328 3040 
Q 2066 3103 1784 3103 
Q 1356 3103 1142 2972 
Q 928 2841 928 2578 
Q 928 2378 1081 2264 
Q 1234 2150 1697 2047 
L 1894 2003 
Q 2506 1872 2764 1633 
Q 3022 1394 3022 966 
Q 3022 478 2636 193 
Q 2250 -91 1575 -91 
Q 1294 -91 989 -36 
Q 684 19 347 128 
L 347 722 
Q 666 556 975 473 
Q 1284 391 1588 391 
Q 1994 391 2212 530 
Q 2431 669 2431 922 
Q 2431 1156 2273 1281 
Q 2116 1406 1581 1522 
L 1381 1569 
Q 847 1681 609 1914 
Q 372 2147 372 2553 
Q 372 3047 722 3315 
Q 1072 3584 1716 3584 
Q 2034 3584 2315 3537 
Q 2597 3491 2834 3397 
z
" transform="scale(0.015625)"/>
        <path id="DejaVuSans-20" transform="scale(0.015625)"/>
        <path id="DejaVuSans-57" d="M 213 4666 
L 850 4666 
L 1831 722 
L 2809 4666 
L 3519 4666 
L 4500 722 
L 5478 4666 
L 6119 4666 
L 4947 0 
L 4153 0 
L 3169 4050 
L 2175 0 
L 1381 0 
L 213 4666 
z
" transform="scale(0.015625)"/>
        <path id="DejaVuSans-69" d="M 603 3500 
L 1178 3500 
L 1178 0 
L 603 0 
L 603 3500 
z
M 603 4863 
L 1178 4863 
L 1178 4134 
L 603 4134 
L 603 4863 
z
" transform="scale(0.015625)"/>
        <path id="DejaVuSans-6c" d="M 603 4863 
L 1178 4863 
L 1178 0 
L 603 0 
L 603 4863 
z
" transform="scale(0.015625)"/>
        <path id="DejaVuSans-63" d="M 3122 3366 
L 3122 2828 
Q 2878 2963 2633 3030 
Q 2388 3097 2138 3097 
Q 1578 3097 1268 2742 
Q 959 2388 959 1747 
Q 959 1106 1268 751 
Q 1578 397 2138 397 
Q 2388 397 2633 464 
Q 2878 531 3122 666 
L 3122 134 
Q 2881 22 2623 -34 
Q 2366 -91 2075 -91 
Q 1284 -91 818 406 
Q 353 903 353 1747 
Q 353 2603 823 3093 
Q 1294 3584 2113 3584 
Q 2378 3584 2631 3529 
Q 2884 3475 3122 3366 
z
" transform="scale(0.015625)"/>
        <path id="DejaVuSans-6f" d="M 1959 3097 
Q 1497 3097 1228 2736 
Q 959 2375 959 1747 
Q 959 1119 1226 758 
Q 1494 397 1959 397 
Q 2419 397 2687 759 
Q 2956 1122 2956 1747 
Q 2956 2369 2687 2733 
Q 2419 3097 1959 3097 
z
M 1959 3584 
Q 2709 3584 3137 3096 
Q 3566 2609 3566 1747 
Q 3566 888 3137 398 
Q 2709 -91 1959 -91 
Q 1206 -91 779 398 
Q 353 888 353 1747 
Q 353 2609 779 3096 
Q 1206 3584 1959 3584 
z
" transform="scale(0.015625)"/>
        <path id="DejaVuSans-78" d="M 3513 3500 
L 2247 1797 
L 3578 0 
L 2900 0 
L 1881 1375 
L 863 0 
L 184 0 
L 1544 1831 
L 300 3500 
L 978 3500 
L 1906 2253 
L 2834 3500 
L 3513 3500 
z
" transform="scale(0.015625)"/>
        <path id="DejaVuSans-6e" d="M 3513 2113 
L 3513 0 
L 2938 0 
L 2938 2094 
Q 2938 2591 2744 2837 
Q 2550 3084 2163 3084 
Q 1697 3084 1428 2787 
Q 1159 2491 1159 1978 
L 1159 0 
L 581 0 
L 581 3500 
L 1159 3500 
L 1159 2956 
Q 1366 3272 1645 3428 
Q 1925 3584 2291 3584 
Q 2894 3584 3203 3211 
Q 3513 2838 3513 2113 
z
" transform="scale(0.015625)"/>
       </defs>
       <use xlink:href="#DejaVuSans-23"/>
       <use xlink:href="#DejaVuSans-44" x="83.789062"/>
       <use xlink:href="#DejaVuSans-45" x="160.791016"/>
       <use xlink:href="#DejaVuSans-47" x="223.974609"/>
       <use xlink:href="#DejaVuSans-73" x="301.464844"/>
       <use xlink:href="#DejaVuSans-20" x="353.564453"/>
       <use xlink:href="#DejaVuSans-57" x="385.351562"/>
       <use xlink:href="#DejaVuSans-69" x="481.978516"/>
       <use xlink:href="#DejaVuSans-6c" x="509.761719"/>
       <use xlink:href="#DejaVuSans-63" x="537.544922"/>
       <use xlink:href="#DejaVuSans-6f" x="592.525391"/>
       <use xlink:href="#DejaVuSans-78" x="650.582031"/>
       <use xlink:href="#DejaVuSans-6f" x="706.636719"/>
       <use xlink:href="#DejaVuSans-6e" x="767.818359"/>
      </g>
     </g>
    </g>
    <g id="ytick_3">
     <g id="line2d_6">
      <g>
       <use xlink:href="#mc942444423" x="105.7" y="123.624" style="stroke: #000000; stroke-width: 0.8"/>
      </g>
     </g>
     <g id="text_6">
      <!-- #DEGs DESeq$2_{100}$ -->
      <g transform="translate(7.2 127.413063) scale(0.1 -0.1)">
       <defs>
        <path id="DejaVuSans-53" d="M 3425 4513 
L 3425 3897 
Q 3066 4069 2747 4153 
Q 2428 4238 2131 4238 
Q 1616 4238 1336 4038 
Q 1056 3838 1056 3469 
Q 1056 3159 1242 3001 
Q 1428 2844 1947 2747 
L 2328 2669 
Q 3034 2534 3370 2195 
Q 3706 1856 3706 1288 
Q 3706 609 3251 259 
Q 2797 -91 1919 -91 
Q 1588 -91 1214 -16 
Q 841 59 441 206 
L 441 856 
Q 825 641 1194 531 
Q 1563 422 1919 422 
Q 2459 422 2753 634 
Q 3047 847 3047 1241 
Q 3047 1584 2836 1778 
Q 2625 1972 2144 2069 
L 1759 2144 
Q 1053 2284 737 2584 
Q 422 2884 422 3419 
Q 422 4038 858 4394 
Q 1294 4750 2059 4750 
Q 2388 4750 2728 4690 
Q 3069 4631 3425 4513 
z
" transform="scale(0.015625)"/>
        <path id="DejaVuSans-65" d="M 3597 1894 
L 3597 1613 
L 953 1613 
Q 991 1019 1311 708 
Q 1631 397 2203 397 
Q 2534 397 2845 478 
Q 3156 559 3463 722 
L 3463 178 
Q 3153 47 2828 -22 
Q 2503 -91 2169 -91 
Q 1331 -91 842 396 
Q 353 884 353 1716 
Q 353 2575 817 3079 
Q 1281 3584 2069 3584 
Q 2775 3584 3186 3129 
Q 3597 2675 3597 1894 
z
M 3022 2063 
Q 3016 2534 2758 2815 
Q 2500 3097 2075 3097 
Q 1594 3097 1305 2825 
Q 1016 2553 972 2059 
L 3022 2063 
z
" transform="scale(0.015625)"/>
        <path id="DejaVuSans-71" d="M 947 1747 
Q 947 1113 1208 752 
Q 1469 391 1925 391 
Q 2381 391 2643 752 
Q 2906 1113 2906 1747 
Q 2906 2381 2643 2742 
Q 2381 3103 1925 3103 
Q 1469 3103 1208 2742 
Q 947 2381 947 1747 
z
M 2906 525 
Q 2725 213 2448 61 
Q 2172 -91 1784 -91 
Q 1150 -91 751 415 
Q 353 922 353 1747 
Q 353 2572 751 3078 
Q 1150 3584 1784 3584 
Q 2172 3584 2448 3432 
Q 2725 3281 2906 2969 
L 2906 3500 
L 3481 3500 
L 3481 -1331 
L 2906 -1331 
L 2906 525 
z
" transform="scale(0.015625)"/>
        <path id="DejaVuSans-31" d="M 794 531 
L 1825 531 
L 1825 4091 
L 703 3866 
L 703 4441 
L 1819 4666 
L 2450 4666 
L 2450 531 
L 3481 531 
L 3481 0 
L 794 0 
L 794 531 
z
" transform="scale(0.015625)"/>
       </defs>
       <use xlink:href="#DejaVuSans-23" transform="translate(0 0.78125)"/>
       <use xlink:href="#DejaVuSans-44" transform="translate(83.789062 0.78125)"/>
       <use xlink:href="#DejaVuSans-45" transform="translate(160.791016 0.78125)"/>
       <use xlink:href="#DejaVuSans-47" transform="translate(223.974609 0.78125)"/>
       <use xlink:href="#DejaVuSans-73" transform="translate(301.464844 0.78125)"/>
       <use xlink:href="#DejaVuSans-20" transform="translate(353.564453 0.78125)"/>
       <use xlink:href="#DejaVuSans-44" transform="translate(385.351562 0.78125)"/>
       <use xlink:href="#DejaVuSans-45" transform="translate(462.353516 0.78125)"/>
       <use xlink:href="#DejaVuSans-53" transform="translate(525.537109 0.78125)"/>
       <use xlink:href="#DejaVuSans-65" transform="translate(589.013672 0.78125)"/>
       <use xlink:href="#DejaVuSans-71" transform="translate(650.537109 0.78125)"/>
       <use xlink:href="#DejaVuSans-32" transform="translate(714.013672 0.78125)"/>
       <use xlink:href="#DejaVuSans-31" transform="translate(778.59375 -15.625) scale(0.7)"/>
       <use xlink:href="#DejaVuSans-30" transform="translate(823.129883 -15.625) scale(0.7)"/>
       <use xlink:href="#DejaVuSans-30" transform="translate(867.666016 -15.625) scale(0.7)"/>
      </g>
     </g>
    </g>
    <g id="ytick_4">
     <g id="line2d_7">
      <g>
       <use xlink:href="#mc942444423" x="105.7" y="156.888" style="stroke: #000000; stroke-width: 0.8"/>
      </g>
     </g>
     <g id="text_7">
      <!-- #DEGs edgeR$_{100}$ -->
      <g transform="translate(14.4 160.688) scale(0.1 -0.1)">
       <defs>
        <path id="DejaVuSans-64" d="M 2906 2969 
L 2906 4863 
L 3481 4863 
L 3481 0 
L 2906 0 
L 2906 525 
Q 2725 213 2448 61 
Q 2172 -91 1784 -91 
Q 1150 -91 751 415 
Q 353 922 353 1747 
Q 353 2572 751 3078 
Q 1150 3584 1784 3584 
Q 2172 3584 2448 3432 
Q 2725 3281 2906 2969 
z
M 947 1747 
Q 947 1113 1208 752 
Q 1469 391 1925 391 
Q 2381 391 2643 752 
Q 2906 1113 2906 1747 
Q 2906 2381 2643 2742 
Q 2381 3103 1925 3103 
Q 1469 3103 1208 2742 
Q 947 2381 947 1747 
z
" transform="scale(0.015625)"/>
        <path id="DejaVuSans-52" d="M 2841 2188 
Q 3044 2119 3236 1894 
Q 3428 1669 3622 1275 
L 4263 0 
L 3584 0 
L 2988 1197 
Q 2756 1666 2539 1819 
Q 2322 1972 1947 1972 
L 1259 1972 
L 1259 0 
L 628 0 
L 628 4666 
L 2053 4666 
Q 2853 4666 3247 4331 
Q 3641 3997 3641 3322 
Q 3641 2881 3436 2590 
Q 3231 2300 2841 2188 
z
M 1259 4147 
L 1259 2491 
L 2053 2491 
Q 2509 2491 2742 2702 
Q 2975 2913 2975 3322 
Q 2975 3731 2742 3939 
Q 2509 4147 2053 4147 
L 1259 4147 
z
" transform="scale(0.015625)"/>
       </defs>
       <use xlink:href="#DejaVuSans-23" transform="translate(0 0.015625)"/>
       <use xlink:href="#DejaVuSans-44" transform="translate(83.789062 0.015625)"/>
       <use xlink:href="#DejaVuSans-45" transform="translate(160.791016 0.015625)"/>
       <use xlink:href="#DejaVuSans-47" transform="translate(223.974609 0.015625)"/>
       <use xlink:href="#DejaVuSans-73" transform="translate(301.464844 0.015625)"/>
       <use xlink:href="#DejaVuSans-20" transform="translate(353.564453 0.015625)"/>
       <use xlink:href="#DejaVuSans-65" transform="translate(385.351562 0.015625)"/>
       <use xlink:href="#DejaVuSans-64" transform="translate(446.875 0.015625)"/>
       <use xlink:href="#DejaVuSans-67" transform="translate(510.351562 0.015625)"/>
       <use xlink:href="#DejaVuSans-65" transform="translate(573.828125 0.015625)"/>
       <use xlink:href="#DejaVuSans-52" transform="translate(635.351562 0.015625)"/>
       <use xlink:href="#DejaVuSans-31" transform="translate(705.791016 -16.390625) scale(0.7)"/>
       <use xlink:href="#DejaVuSans-30" transform="translate(750.327148 -16.390625) scale(0.7)"/>
       <use xlink:href="#DejaVuSans-30" transform="translate(794.863281 -16.390625) scale(0.7)"/>
      </g>
     </g>
    </g>
    <g id="ytick_5">
     <g id="line2d_8">
      <g>
       <use xlink:href="#mc942444423" x="105.7" y="190.152" style="stroke: #000000; stroke-width: 0.8"/>
      </g>
     </g>
     <g id="text_8">
      <!-- $\mathbf{scXMatch}$ -->
      <g transform="translate(44.5 193.951219) scale(0.1 -0.1)">
       <defs>
        <path id="DejaVuSans-Bold-73" d="M 3272 3391 
L 3272 2541 
Q 2913 2691 2578 2766 
Q 2244 2841 1947 2841 
Q 1628 2841 1473 2761 
Q 1319 2681 1319 2516 
Q 1319 2381 1436 2309 
Q 1553 2238 1856 2203 
L 2053 2175 
Q 2913 2066 3209 1816 
Q 3506 1566 3506 1031 
Q 3506 472 3093 190 
Q 2681 -91 1863 -91 
Q 1516 -91 1145 -36 
Q 775 19 384 128 
L 384 978 
Q 719 816 1070 734 
Q 1422 653 1784 653 
Q 2113 653 2278 743 
Q 2444 834 2444 1013 
Q 2444 1163 2330 1236 
Q 2216 1309 1875 1350 
L 1678 1375 
Q 931 1469 631 1722 
Q 331 1975 331 2491 
Q 331 3047 712 3315 
Q 1094 3584 1881 3584 
Q 2191 3584 2531 3537 
Q 2872 3491 3272 3391 
z
" transform="scale(0.015625)"/>
        <path id="DejaVuSans-Bold-63" d="M 3366 3391 
L 3366 2478 
Q 3138 2634 2908 2709 
Q 2678 2784 2431 2784 
Q 1963 2784 1702 2511 
Q 1441 2238 1441 1747 
Q 1441 1256 1702 982 
Q 1963 709 2431 709 
Q 2694 709 2930 787 
Q 3166 866 3366 1019 
L 3366 103 
Q 3103 6 2833 -42 
Q 2563 -91 2291 -91 
Q 1344 -91 809 395 
Q 275 881 275 1747 
Q 275 2613 809 3098 
Q 1344 3584 2291 3584 
Q 2566 3584 2833 3536 
Q 3100 3488 3366 3391 
z
" transform="scale(0.015625)"/>
        <path id="DejaVuSans-Bold-58" d="M 3188 2381 
L 4806 0 
L 3553 0 
L 2463 1594 
L 1381 0 
L 122 0 
L 1741 2381 
L 184 4666 
L 1441 4666 
L 2463 3163 
L 3481 4666 
L 4744 4666 
L 3188 2381 
z
" transform="scale(0.015625)"/>
        <path id="DejaVuSans-Bold-4d" d="M 588 4666 
L 2119 4666 
L 3181 2169 
L 4250 4666 
L 5778 4666 
L 5778 0 
L 4641 0 
L 4641 3413 
L 3566 897 
L 2803 897 
L 1728 3413 
L 1728 0 
L 588 0 
L 588 4666 
z
" transform="scale(0.015625)"/>
        <path id="DejaVuSans-Bold-61" d="M 2106 1575 
Q 1756 1575 1579 1456 
Q 1403 1338 1403 1106 
Q 1403 894 1545 773 
Q 1688 653 1941 653 
Q 2256 653 2472 879 
Q 2688 1106 2688 1447 
L 2688 1575 
L 2106 1575 
z
M 3816 1997 
L 3816 0 
L 2688 0 
L 2688 519 
Q 2463 200 2181 54 
Q 1900 -91 1497 -91 
Q 953 -91 614 226 
Q 275 544 275 1050 
Q 275 1666 698 1953 
Q 1122 2241 2028 2241 
L 2688 2241 
L 2688 2328 
Q 2688 2594 2478 2717 
Q 2269 2841 1825 2841 
Q 1466 2841 1156 2769 
Q 847 2697 581 2553 
L 581 3406 
Q 941 3494 1303 3539 
Q 1666 3584 2028 3584 
Q 2975 3584 3395 3211 
Q 3816 2838 3816 1997 
z
" transform="scale(0.015625)"/>
        <path id="DejaVuSans-Bold-74" d="M 1759 4494 
L 1759 3500 
L 2913 3500 
L 2913 2700 
L 1759 2700 
L 1759 1216 
Q 1759 972 1856 886 
Q 1953 800 2241 800 
L 2816 800 
L 2816 0 
L 1856 0 
Q 1194 0 917 276 
Q 641 553 641 1216 
L 641 2700 
L 84 2700 
L 84 3500 
L 641 3500 
L 641 4494 
L 1759 4494 
z
" transform="scale(0.015625)"/>
        <path id="DejaVuSans-Bold-68" d="M 4056 2131 
L 4056 0 
L 2931 0 
L 2931 347 
L 2931 1625 
Q 2931 2084 2911 2256 
Q 2891 2428 2841 2509 
Q 2775 2619 2662 2680 
Q 2550 2741 2406 2741 
Q 2056 2741 1856 2470 
Q 1656 2200 1656 1722 
L 1656 0 
L 538 0 
L 538 4863 
L 1656 4863 
L 1656 2988 
Q 1909 3294 2193 3439 
Q 2478 3584 2822 3584 
Q 3428 3584 3742 3212 
Q 4056 2841 4056 2131 
z
" transform="scale(0.015625)"/>
       </defs>
       <use xlink:href="#DejaVuSans-Bold-73" transform="translate(0 0.015625)"/>
       <use xlink:href="#DejaVuSans-Bold-63" transform="translate(59.521484 0.015625)"/>
       <use xlink:href="#DejaVuSans-Bold-58" transform="translate(118.798828 0.015625)"/>
       <use xlink:href="#DejaVuSans-Bold-4d" transform="translate(195.898438 0.015625)"/>
       <use xlink:href="#DejaVuSans-Bold-61" transform="translate(295.410156 0.015625)"/>
       <use xlink:href="#DejaVuSans-Bold-74" transform="translate(362.890625 0.015625)"/>
       <use xlink:href="#DejaVuSans-Bold-63" transform="translate(410.693359 0.015625)"/>
       <use xlink:href="#DejaVuSans-Bold-68" transform="translate(469.970703 0.015625)"/>
      </g>
     </g>
    </g>
   </g>
   <g id="line2d_9">
    <path clip-path="url(#p1576d173ca)" style="fill: none; stroke: #424242; stroke-width: 2.25; stroke-linecap: square"/>
   </g>
   <g id="line2d_10">
    <path clip-path="url(#p1576d173ca)" style="fill: none; stroke: #424242; stroke-width: 2.25; stroke-linecap: square"/>
   </g>
   <g id="line2d_11">
    <path clip-path="url(#p1576d173ca)" style="fill: none; stroke: #424242; stroke-width: 2.25; stroke-linecap: square"/>
   </g>
   <g id="line2d_12">
    <path clip-path="url(#p1576d173ca)" style="fill: none; stroke: #424242; stroke-width: 2.25; stroke-linecap: square"/>
   </g>
   <g id="line2d_13">
    <path clip-path="url(#p1576d173ca)" style="fill: none; stroke: #424242; stroke-width: 2.25; stroke-linecap: square"/>
   </g>
   <g id="patch_8">
    <path d="M 105.7 206.784 
L 105.7 40.464 
" style="fill: none; stroke: #000000; stroke-width: 0.8; stroke-linejoin: miter; stroke-linecap: square"/>
   </g>
   <g id="patch_9">
    <path d="M 214.873913 206.784 
L 214.873913 40.464 
" style="fill: none; stroke: #000000; stroke-width: 0.8; stroke-linejoin: miter; stroke-linecap: square"/>
   </g>
   <g id="patch_10">
    <path d="M 105.7 206.784 
L 214.873913 206.784 
" style="fill: none; stroke: #000000; stroke-width: 0.8; stroke-linejoin: miter; stroke-linecap: square"/>
   </g>
   <g id="patch_11">
    <path d="M 105.7 40.464 
L 214.873913 40.464 
" style="fill: none; stroke: #000000; stroke-width: 0.8; stroke-linejoin: miter; stroke-linecap: square"/>
   </g>
   <g id="text_9">
    <!-- e -->
    <g transform="translate(7.443478 16.318125) scale(0.12 -0.12)">
     <defs>
      <path id="DejaVuSans-Bold-65" d="M 4031 1759 
L 4031 1441 
L 1416 1441 
Q 1456 1047 1700 850 
Q 1944 653 2381 653 
Q 2734 653 3104 758 
Q 3475 863 3866 1075 
L 3866 213 
Q 3469 63 3072 -14 
Q 2675 -91 2278 -91 
Q 1328 -91 801 392 
Q 275 875 275 1747 
Q 275 2603 792 3093 
Q 1309 3584 2216 3584 
Q 3041 3584 3536 3087 
Q 4031 2591 4031 1759 
z
M 2881 2131 
Q 2881 2450 2695 2645 
Q 2509 2841 2209 2841 
Q 1884 2841 1681 2658 
Q 1478 2475 1428 2131 
L 2881 2131 
z
" transform="scale(0.015625)"/>
     </defs>
     <use xlink:href="#DejaVuSans-Bold-65"/>
    </g>
   </g>
   <g id="text_10">
    <!-- Pareto optimality -->
    <g transform="translate(109.050707 34.464) scale(0.12 -0.12)">
     <defs>
      <path id="DejaVuSans-50" d="M 1259 4147 
L 1259 2394 
L 2053 2394 
Q 2494 2394 2734 2622 
Q 2975 2850 2975 3272 
Q 2975 3691 2734 3919 
Q 2494 4147 2053 4147 
L 1259 4147 
z
M 628 4666 
L 2053 4666 
Q 2838 4666 3239 4311 
Q 3641 3956 3641 3272 
Q 3641 2581 3239 2228 
Q 2838 1875 2053 1875 
L 1259 1875 
L 1259 0 
L 628 0 
L 628 4666 
z
" transform="scale(0.015625)"/>
      <path id="DejaVuSans-61" d="M 2194 1759 
Q 1497 1759 1228 1600 
Q 959 1441 959 1056 
Q 959 750 1161 570 
Q 1363 391 1709 391 
Q 2188 391 2477 730 
Q 2766 1069 2766 1631 
L 2766 1759 
L 2194 1759 
z
M 3341 1997 
L 3341 0 
L 2766 0 
L 2766 531 
Q 2569 213 2275 61 
Q 1981 -91 1556 -91 
Q 1019 -91 701 211 
Q 384 513 384 1019 
Q 384 1609 779 1909 
Q 1175 2209 1959 2209 
L 2766 2209 
L 2766 2266 
Q 2766 2663 2505 2880 
Q 2244 3097 1772 3097 
Q 1472 3097 1187 3025 
Q 903 2953 641 2809 
L 641 3341 
Q 956 3463 1253 3523 
Q 1550 3584 1831 3584 
Q 2591 3584 2966 3190 
Q 3341 2797 3341 1997 
z
" transform="scale(0.015625)"/>
      <path id="DejaVuSans-74" d="M 1172 4494 
L 1172 3500 
L 2356 3500 
L 2356 3053 
L 1172 3053 
L 1172 1153 
Q 1172 725 1289 603 
Q 1406 481 1766 481 
L 2356 481 
L 2356 0 
L 1766 0 
Q 1100 0 847 248 
Q 594 497 594 1153 
L 594 3053 
L 172 3053 
L 172 3500 
L 594 3500 
L 594 4494 
L 1172 4494 
z
" transform="scale(0.015625)"/>
      <path id="DejaVuSans-70" d="M 1159 525 
L 1159 -1331 
L 581 -1331 
L 581 3500 
L 1159 3500 
L 1159 2969 
Q 1341 3281 1617 3432 
Q 1894 3584 2278 3584 
Q 2916 3584 3314 3078 
Q 3713 2572 3713 1747 
Q 3713 922 3314 415 
Q 2916 -91 2278 -91 
Q 1894 -91 1617 61 
Q 1341 213 1159 525 
z
M 3116 1747 
Q 3116 2381 2855 2742 
Q 2594 3103 2138 3103 
Q 1681 3103 1420 2742 
Q 1159 2381 1159 1747 
Q 1159 1113 1420 752 
Q 1681 391 2138 391 
Q 2594 391 2855 752 
Q 3116 1113 3116 1747 
z
" transform="scale(0.015625)"/>
      <path id="DejaVuSans-6d" d="M 3328 2828 
Q 3544 3216 3844 3400 
Q 4144 3584 4550 3584 
Q 5097 3584 5394 3201 
Q 5691 2819 5691 2113 
L 5691 0 
L 5113 0 
L 5113 2094 
Q 5113 2597 4934 2840 
Q 4756 3084 4391 3084 
Q 3944 3084 3684 2787 
Q 3425 2491 3425 1978 
L 3425 0 
L 2847 0 
L 2847 2094 
Q 2847 2600 2669 2842 
Q 2491 3084 2119 3084 
Q 1678 3084 1418 2786 
Q 1159 2488 1159 1978 
L 1159 0 
L 581 0 
L 581 3500 
L 1159 3500 
L 1159 2956 
Q 1356 3278 1631 3431 
Q 1906 3584 2284 3584 
Q 2666 3584 2933 3390 
Q 3200 3197 3328 2828 
z
" transform="scale(0.015625)"/>
      <path id="DejaVuSans-79" d="M 2059 -325 
Q 1816 -950 1584 -1140 
Q 1353 -1331 966 -1331 
L 506 -1331 
L 506 -850 
L 844 -850 
Q 1081 -850 1212 -737 
Q 1344 -625 1503 -206 
L 1606 56 
L 191 3500 
L 800 3500 
L 1894 763 
L 2988 3500 
L 3597 3500 
L 2059 -325 
z
" transform="scale(0.015625)"/>
     </defs>
     <use xlink:href="#DejaVuSans-50"/>
     <use xlink:href="#DejaVuSans-61" x="55.802734"/>
     <use xlink:href="#DejaVuSans-72" x="117.082031"/>
     <use xlink:href="#DejaVuSans-65" x="155.945312"/>
     <use xlink:href="#DejaVuSans-74" x="217.46875"/>
     <use xlink:href="#DejaVuSans-6f" x="256.677734"/>
     <use xlink:href="#DejaVuSans-20" x="317.859375"/>
     <use xlink:href="#DejaVuSans-6f" x="349.646484"/>
     <use xlink:href="#DejaVuSans-70" x="410.828125"/>
     <use xlink:href="#DejaVuSans-74" x="474.304688"/>
     <use xlink:href="#DejaVuSans-69" x="513.513672"/>
     <use xlink:href="#DejaVuSans-6d" x="541.296875"/>
     <use xlink:href="#DejaVuSans-61" x="638.708984"/>
     <use xlink:href="#DejaVuSans-6c" x="699.988281"/>
     <use xlink:href="#DejaVuSans-69" x="727.771484"/>
     <use xlink:href="#DejaVuSans-74" x="755.554688"/>
     <use xlink:href="#DejaVuSans-79" x="794.763672"/>
    </g>
   </g>
  </g>
  <g id="axes_2">
   <g id="patch_12">
    <path d="M 236.708696 206.784 
L 345.882609 206.784 
L 345.882609 40.464 
L 236.708696 40.464 
z
" style="fill: #ffffff"/>
   </g>
   <g id="matplotlib.axis_3">
    <g id="xtick_4">
     <g id="line2d_14">
      <g>
       <use xlink:href="#m7e8eba1cc5" x="241.671146" y="206.784" style="stroke: #000000; stroke-width: 0.8"/>
      </g>
     </g>
     <g id="text_11">
      <!-- 0.0 -->
      <g transform="translate(233.719584 221.382438) scale(0.1 -0.1)">
       <defs>
        <path id="DejaVuSans-2e" d="M 684 794 
L 1344 794 
L 1344 0 
L 684 0 
L 684 794 
z
" transform="scale(0.015625)"/>
       </defs>
       <use xlink:href="#DejaVuSans-30"/>
       <use xlink:href="#DejaVuSans-2e" x="63.623047"/>
       <use xlink:href="#DejaVuSans-30" x="95.410156"/>
      </g>
     </g>
    </g>
    <g id="xtick_5">
     <g id="line2d_15">
      <g>
       <use xlink:href="#m7e8eba1cc5" x="291.295652" y="206.784" style="stroke: #000000; stroke-width: 0.8"/>
      </g>
     </g>
     <g id="text_12">
      <!-- 0.5 -->
      <g transform="translate(283.34409 221.382438) scale(0.1 -0.1)">
       <defs>
        <path id="DejaVuSans-35" d="M 691 4666 
L 3169 4666 
L 3169 4134 
L 1269 4134 
L 1269 2991 
Q 1406 3038 1543 3061 
Q 1681 3084 1819 3084 
Q 2600 3084 3056 2656 
Q 3513 2228 3513 1497 
Q 3513 744 3044 326 
Q 2575 -91 1722 -91 
Q 1428 -91 1123 -41 
Q 819 9 494 109 
L 494 744 
Q 775 591 1075 516 
Q 1375 441 1709 441 
Q 2250 441 2565 725 
Q 2881 1009 2881 1497 
Q 2881 1984 2565 2268 
Q 2250 2553 1709 2553 
Q 1456 2553 1204 2497 
Q 953 2441 691 2322 
L 691 4666 
z
" transform="scale(0.015625)"/>
       </defs>
       <use xlink:href="#DejaVuSans-30"/>
       <use xlink:href="#DejaVuSans-2e" x="63.623047"/>
       <use xlink:href="#DejaVuSans-35" x="95.410156"/>
      </g>
     </g>
    </g>
    <g id="xtick_6">
     <g id="line2d_16">
      <g>
       <use xlink:href="#m7e8eba1cc5" x="340.920158" y="206.784" style="stroke: #000000; stroke-width: 0.8"/>
      </g>
     </g>
     <g id="text_13">
      <!-- 1.0 -->
      <g transform="translate(332.968596 221.382438) scale(0.1 -0.1)">
       <use xlink:href="#DejaVuSans-31"/>
       <use xlink:href="#DejaVuSans-2e" x="63.623047"/>
       <use xlink:href="#DejaVuSans-30" x="95.410156"/>
      </g>
     </g>
    </g>
   </g>
   <g id="matplotlib.axis_4">
    <g id="ytick_6">
     <g id="line2d_17">
      <g>
       <use xlink:href="#mc942444423" x="236.708696" y="57.096" style="stroke: #000000; stroke-width: 0.8"/>
      </g>
     </g>
    </g>
    <g id="ytick_7">
     <g id="line2d_18">
      <g>
       <use xlink:href="#mc942444423" x="236.708696" y="90.36" style="stroke: #000000; stroke-width: 0.8"/>
      </g>
     </g>
    </g>
    <g id="ytick_8">
     <g id="line2d_19">
      <g>
       <use xlink:href="#mc942444423" x="236.708696" y="123.624" style="stroke: #000000; stroke-width: 0.8"/>
      </g>
     </g>
    </g>
    <g id="ytick_9">
     <g id="line2d_20">
      <g>
       <use xlink:href="#mc942444423" x="236.708696" y="156.888" style="stroke: #000000; stroke-width: 0.8"/>
      </g>
     </g>
    </g>
    <g id="ytick_10">
     <g id="line2d_21">
      <g>
       <use xlink:href="#mc942444423" x="236.708696" y="190.152" style="stroke: #000000; stroke-width: 0.8"/>
      </g>
     </g>
    </g>
   </g>
   <g id="patch_13">
    <path d="M 241.671146 43.7904 
L 241.671146 70.4016 
L 340.920158 70.4016 
L 340.920158 43.7904 
L 241.671146 43.7904 
z
" clip-path="url(#p399b83d3a1)" style="fill: #4a4c7e; stroke: #373737; stroke-linejoin: miter"/>
   </g>
   <g id="line2d_22">
    <path d="M 241.671146 57.096 
L 241.671146 57.096 
" clip-path="url(#p399b83d3a1)" style="fill: none; stroke: #373737"/>
   </g>
   <g id="line2d_23">
    <path d="M 340.920158 57.096 
L 340.920158 57.096 
" clip-path="url(#p399b83d3a1)" style="fill: none; stroke: #373737"/>
   </g>
   <g id="line2d_24">
    <path d="M 241.671146 50.4432 
L 241.671146 63.7488 
" clip-path="url(#p399b83d3a1)" style="fill: none; stroke: #373737; stroke-linecap: square"/>
   </g>
   <g id="line2d_25">
    <path d="M 340.920158 50.4432 
L 340.920158 63.7488 
" clip-path="url(#p399b83d3a1)" style="fill: none; stroke: #373737; stroke-linecap: square"/>
   </g>
   <g id="line2d_26"/>
   <g id="patch_14">
    <path d="M 241.671146 77.0544 
L 241.671146 103.6656 
L 340.920158 103.6656 
L 340.920158 77.0544 
L 241.671146 77.0544 
z
" clip-path="url(#p399b83d3a1)" style="fill: #367182; stroke: #373737; stroke-linejoin: miter"/>
   </g>
   <g id="line2d_27">
    <path d="M 241.671146 90.36 
L 241.671146 90.36 
" clip-path="url(#p399b83d3a1)" style="fill: none; stroke: #373737"/>
   </g>
   <g id="line2d_28">
    <path d="M 340.920158 90.36 
L 340.920158 90.36 
" clip-path="url(#p399b83d3a1)" style="fill: none; stroke: #373737"/>
   </g>
   <g id="line2d_29">
    <path d="M 241.671146 83.7072 
L 241.671146 97.0128 
" clip-path="url(#p399b83d3a1)" style="fill: none; stroke: #373737; stroke-linecap: square"/>
   </g>
   <g id="line2d_30">
    <path d="M 340.920158 83.7072 
L 340.920158 97.0128 
" clip-path="url(#p399b83d3a1)" style="fill: none; stroke: #373737; stroke-linecap: square"/>
   </g>
   <g id="line2d_31"/>
   <g id="patch_15">
    <path d="M 340.920158 110.3184 
L 340.920158 136.9296 
L 340.920158 136.9296 
L 340.920158 110.3184 
L 340.920158 110.3184 
z
" clip-path="url(#p399b83d3a1)" style="fill: #33977c; stroke: #373737; stroke-linejoin: miter"/>
   </g>
   <g id="line2d_32">
    <path d="M 340.920158 123.624 
L 340.920158 123.624 
" clip-path="url(#p399b83d3a1)" style="fill: none; stroke: #373737"/>
   </g>
   <g id="line2d_33">
    <path d="M 340.920158 123.624 
L 340.920158 123.624 
" clip-path="url(#p399b83d3a1)" style="fill: none; stroke: #373737"/>
   </g>
   <g id="line2d_34">
    <path d="M 340.920158 116.9712 
L 340.920158 130.2768 
" clip-path="url(#p399b83d3a1)" style="fill: none; stroke: #373737; stroke-linecap: square"/>
   </g>
   <g id="line2d_35">
    <path d="M 340.920158 116.9712 
L 340.920158 130.2768 
" clip-path="url(#p399b83d3a1)" style="fill: none; stroke: #373737; stroke-linecap: square"/>
   </g>
   <g id="line2d_36">
    <defs>
     <path id="mcb8e6cce26" d="M 0 3 
C 0.795609 3 1.55874 2.683901 2.12132 2.12132 
C 2.683901 1.55874 3 0.795609 3 0 
C 3 -0.795609 2.683901 -1.55874 2.12132 -2.12132 
C 1.55874 -2.683901 0.795609 -3 0 -3 
C -0.795609 -3 -1.55874 -2.683901 -2.12132 -2.12132 
C -2.683901 -1.55874 -3 -0.795609 -3 0 
C -3 0.795609 -2.683901 1.55874 -2.12132 2.12132 
C -1.55874 2.683901 -0.795609 3 0 3 
z
" style="stroke: #373737"/>
    </defs>
    <g clip-path="url(#p399b83d3a1)">
     <use xlink:href="#mcb8e6cce26" x="333.489751" y="123.624" style="fill-opacity: 0; stroke: #373737"/>
    </g>
   </g>
   <g id="patch_16">
    <path d="M 340.920158 143.5824 
L 340.920158 170.1936 
L 340.920158 170.1936 
L 340.920158 143.5824 
L 340.920158 143.5824 
z
" clip-path="url(#p399b83d3a1)" style="fill: #80c161; stroke: #373737; stroke-linejoin: miter"/>
   </g>
   <g id="line2d_37">
    <path d="M 340.920158 156.888 
L 340.920158 156.888 
" clip-path="url(#p399b83d3a1)" style="fill: none; stroke: #373737"/>
   </g>
   <g id="line2d_38">
    <path d="M 340.920158 156.888 
L 340.920158 156.888 
" clip-path="url(#p399b83d3a1)" style="fill: none; stroke: #373737"/>
   </g>
   <g id="line2d_39">
    <path d="M 340.920158 150.2352 
L 340.920158 163.5408 
" clip-path="url(#p399b83d3a1)" style="fill: none; stroke: #373737; stroke-linecap: square"/>
   </g>
   <g id="line2d_40">
    <path d="M 340.920158 150.2352 
L 340.920158 163.5408 
" clip-path="url(#p399b83d3a1)" style="fill: none; stroke: #373737; stroke-linecap: square"/>
   </g>
   <g id="line2d_41">
    <g clip-path="url(#p399b83d3a1)">
     <use xlink:href="#mcb8e6cce26" x="334.551238" y="156.888" style="fill-opacity: 0; stroke: #373737"/>
    </g>
   </g>
   <g id="patch_17">
    <path d="M 340.920158 176.8464 
L 340.920158 203.4576 
L 340.920158 203.4576 
L 340.920158 176.8464 
L 340.920158 176.8464 
z
" clip-path="url(#p399b83d3a1)" style="fill: #a74779; stroke: #373737; stroke-linejoin: miter"/>
   </g>
   <g id="line2d_42">
    <path d="M 340.920158 190.152 
L 340.920158 190.152 
" clip-path="url(#p399b83d3a1)" style="fill: none; stroke: #373737"/>
   </g>
   <g id="line2d_43">
    <path d="M 340.920158 190.152 
L 340.920158 190.152 
" clip-path="url(#p399b83d3a1)" style="fill: none; stroke: #373737"/>
   </g>
   <g id="line2d_44">
    <path d="M 340.920158 183.4992 
L 340.920158 196.8048 
" clip-path="url(#p399b83d3a1)" style="fill: none; stroke: #373737; stroke-linecap: square"/>
   </g>
   <g id="line2d_45">
    <path d="M 340.920158 183.4992 
L 340.920158 196.8048 
" clip-path="url(#p399b83d3a1)" style="fill: none; stroke: #373737; stroke-linecap: square"/>
   </g>
   <g id="line2d_46">
    <g clip-path="url(#p399b83d3a1)">
     <use xlink:href="#mcb8e6cce26" x="241.671146" y="190.152" style="fill-opacity: 0; stroke: #373737"/>
    </g>
   </g>
   <g id="line2d_47">
    <path d="M 327.740031 43.7904 
L 327.740031 70.4016 
" clip-path="url(#p399b83d3a1)" style="fill: none; stroke: #373737"/>
   </g>
   <g id="line2d_48">
    <path d="M 287.668906 77.0544 
L 287.668906 103.6656 
" clip-path="url(#p399b83d3a1)" style="fill: none; stroke: #373737"/>
   </g>
   <g id="line2d_49">
    <path d="M 340.920158 110.3184 
L 340.920158 136.9296 
" clip-path="url(#p399b83d3a1)" style="fill: none; stroke: #373737"/>
   </g>
   <g id="line2d_50">
    <path d="M 340.920158 143.5824 
L 340.920158 170.1936 
" clip-path="url(#p399b83d3a1)" style="fill: none; stroke: #373737"/>
   </g>
   <g id="line2d_51">
    <path d="M 340.920158 176.8464 
L 340.920158 203.4576 
" clip-path="url(#p399b83d3a1)" style="fill: none; stroke: #373737"/>
   </g>
   <g id="patch_18">
    <path d="M 236.708696 206.784 
L 236.708696 40.464 
" style="fill: none; stroke: #000000; stroke-width: 0.8; stroke-linejoin: miter; stroke-linecap: square"/>
   </g>
   <g id="patch_19">
    <path d="M 345.882609 206.784 
L 345.882609 40.464 
" style="fill: none; stroke: #000000; stroke-width: 0.8; stroke-linejoin: miter; stroke-linecap: square"/>
   </g>
   <g id="patch_20">
    <path d="M 236.708696 206.784 
L 345.882609 206.784 
" style="fill: none; stroke: #000000; stroke-width: 0.8; stroke-linejoin: miter; stroke-linecap: square"/>
   </g>
   <g id="patch_21">
    <path d="M 236.708696 40.464 
L 345.882609 40.464 
" style="fill: none; stroke: #000000; stroke-width: 0.8; stroke-linejoin: miter; stroke-linecap: square"/>
   </g>
   <g id="text_14">
    <!-- MI -->
    <g transform="translate(284.348777 34.464) scale(0.12 -0.12)">
     <defs>
      <path id="DejaVuSans-4d" d="M 628 4666 
L 1569 4666 
L 2759 1491 
L 3956 4666 
L 4897 4666 
L 4897 0 
L 4281 0 
L 4281 4097 
L 3078 897 
L 2444 897 
L 1241 4097 
L 1241 0 
L 628 0 
L 628 4666 
z
" transform="scale(0.015625)"/>
      <path id="DejaVuSans-49" d="M 628 4666 
L 1259 4666 
L 1259 0 
L 628 0 
L 628 4666 
z
" transform="scale(0.015625)"/>
     </defs>
     <use xlink:href="#DejaVuSans-4d"/>
     <use xlink:href="#DejaVuSans-49" x="86.279297"/>
    </g>
   </g>
  </g>
  <g id="axes_3">
   <g id="patch_22">
    <path d="M 367.717391 206.784 
L 476.891304 206.784 
L 476.891304 40.464 
L 367.717391 40.464 
z
" style="fill: #ffffff"/>
   </g>
   <g id="matplotlib.axis_5">
    <g id="xtick_7">
     <g id="line2d_52">
      <g>
       <use xlink:href="#m7e8eba1cc5" x="372.679842" y="206.784" style="stroke: #000000; stroke-width: 0.8"/>
      </g>
     </g>
     <g id="text_15">
      <!-- 0.95 -->
      <g transform="translate(361.547029 221.382438) scale(0.1 -0.1)">
       <defs>
        <path id="DejaVuSans-39" d="M 703 97 
L 703 672 
Q 941 559 1184 500 
Q 1428 441 1663 441 
Q 2288 441 2617 861 
Q 2947 1281 2994 2138 
Q 2813 1869 2534 1725 
Q 2256 1581 1919 1581 
Q 1219 1581 811 2004 
Q 403 2428 403 3163 
Q 403 3881 828 4315 
Q 1253 4750 1959 4750 
Q 2769 4750 3195 4129 
Q 3622 3509 3622 2328 
Q 3622 1225 3098 567 
Q 2575 -91 1691 -91 
Q 1453 -91 1209 -44 
Q 966 3 703 97 
z
M 1959 2075 
Q 2384 2075 2632 2365 
Q 2881 2656 2881 3163 
Q 2881 3666 2632 3958 
Q 2384 4250 1959 4250 
Q 1534 4250 1286 3958 
Q 1038 3666 1038 3163 
Q 1038 2656 1286 2365 
Q 1534 2075 1959 2075 
z
" transform="scale(0.015625)"/>
       </defs>
       <use xlink:href="#DejaVuSans-30"/>
       <use xlink:href="#DejaVuSans-2e" x="63.623047"/>
       <use xlink:href="#DejaVuSans-39" x="95.410156"/>
       <use xlink:href="#DejaVuSans-35" x="159.033203"/>
      </g>
     </g>
    </g>
    <g id="xtick_8">
     <g id="line2d_53">
      <g>
       <use xlink:href="#m7e8eba1cc5" x="422.304348" y="206.784" style="stroke: #000000; stroke-width: 0.8"/>
      </g>
     </g>
     <g id="text_16">
      <!-- 1.00 -->
      <g transform="translate(411.171535 221.382438) scale(0.1 -0.1)">
       <use xlink:href="#DejaVuSans-31"/>
       <use xlink:href="#DejaVuSans-2e" x="63.623047"/>
       <use xlink:href="#DejaVuSans-30" x="95.410156"/>
       <use xlink:href="#DejaVuSans-30" x="159.033203"/>
      </g>
     </g>
    </g>
    <g id="xtick_9">
     <g id="line2d_54">
      <g>
       <use xlink:href="#m7e8eba1cc5" x="471.928854" y="206.784" style="stroke: #000000; stroke-width: 0.8"/>
      </g>
     </g>
     <g id="text_17">
      <!-- 1.05 -->
      <g transform="translate(460.796041 221.382438) scale(0.1 -0.1)">
       <use xlink:href="#DejaVuSans-31"/>
       <use xlink:href="#DejaVuSans-2e" x="63.623047"/>
       <use xlink:href="#DejaVuSans-30" x="95.410156"/>
       <use xlink:href="#DejaVuSans-35" x="159.033203"/>
      </g>
     </g>
    </g>
   </g>
   <g id="matplotlib.axis_6">
    <g id="ytick_11">
     <g id="line2d_55">
      <g>
       <use xlink:href="#mc942444423" x="367.717391" y="57.096" style="stroke: #000000; stroke-width: 0.8"/>
      </g>
     </g>
    </g>
    <g id="ytick_12">
     <g id="line2d_56">
      <g>
       <use xlink:href="#mc942444423" x="367.717391" y="90.36" style="stroke: #000000; stroke-width: 0.8"/>
      </g>
     </g>
    </g>
    <g id="ytick_13">
     <g id="line2d_57">
      <g>
       <use xlink:href="#mc942444423" x="367.717391" y="123.624" style="stroke: #000000; stroke-width: 0.8"/>
      </g>
     </g>
    </g>
    <g id="ytick_14">
     <g id="line2d_58">
      <g>
       <use xlink:href="#mc942444423" x="367.717391" y="156.888" style="stroke: #000000; stroke-width: 0.8"/>
      </g>
     </g>
    </g>
    <g id="ytick_15">
     <g id="line2d_59">
      <g>
       <use xlink:href="#mc942444423" x="367.717391" y="190.152" style="stroke: #000000; stroke-width: 0.8"/>
      </g>
     </g>
    </g>
   </g>
   <g id="patch_23">
    <path d="M 422.304348 43.7904 
L 422.304348 70.4016 
L 422.304348 70.4016 
L 422.304348 43.7904 
L 422.304348 43.7904 
z
" clip-path="url(#peb5986d88a)" style="fill: #4a4c7e; stroke: #373737; stroke-linejoin: miter"/>
   </g>
   <g id="line2d_60">
    <path d="M 422.304348 57.096 
L 422.304348 57.096 
" clip-path="url(#peb5986d88a)" style="fill: none; stroke: #373737"/>
   </g>
   <g id="line2d_61">
    <path d="M 422.304348 57.096 
L 422.304348 57.096 
" clip-path="url(#peb5986d88a)" style="fill: none; stroke: #373737"/>
   </g>
   <g id="line2d_62">
    <path d="M 422.304348 50.4432 
L 422.304348 63.7488 
" clip-path="url(#peb5986d88a)" style="fill: none; stroke: #373737; stroke-linecap: square"/>
   </g>
   <g id="line2d_63">
    <path d="M 422.304348 50.4432 
L 422.304348 63.7488 
" clip-path="url(#peb5986d88a)" style="fill: none; stroke: #373737; stroke-linecap: square"/>
   </g>
   <g id="line2d_64"/>
   <g id="patch_24">
    <path d="M 422.304348 77.0544 
L 422.304348 103.6656 
L 422.304348 103.6656 
L 422.304348 77.0544 
L 422.304348 77.0544 
z
" clip-path="url(#peb5986d88a)" style="fill: #367182; stroke: #373737; stroke-linejoin: miter"/>
   </g>
   <g id="line2d_65">
    <path d="M 422.304348 90.36 
L 422.304348 90.36 
" clip-path="url(#peb5986d88a)" style="fill: none; stroke: #373737"/>
   </g>
   <g id="line2d_66">
    <path d="M 422.304348 90.36 
L 422.304348 90.36 
" clip-path="url(#peb5986d88a)" style="fill: none; stroke: #373737"/>
   </g>
   <g id="line2d_67">
    <path d="M 422.304348 83.7072 
L 422.304348 97.0128 
" clip-path="url(#peb5986d88a)" style="fill: none; stroke: #373737; stroke-linecap: square"/>
   </g>
   <g id="line2d_68">
    <path d="M 422.304348 83.7072 
L 422.304348 97.0128 
" clip-path="url(#peb5986d88a)" style="fill: none; stroke: #373737; stroke-linecap: square"/>
   </g>
   <g id="line2d_69"/>
   <g id="patch_25">
    <path d="M 422.304348 110.3184 
L 422.304348 136.9296 
L 422.304348 136.9296 
L 422.304348 110.3184 
L 422.304348 110.3184 
z
" clip-path="url(#peb5986d88a)" style="fill: #33977c; stroke: #373737; stroke-linejoin: miter"/>
   </g>
   <g id="line2d_70">
    <path d="M 422.304348 123.624 
L 422.304348 123.624 
" clip-path="url(#peb5986d88a)" style="fill: none; stroke: #373737"/>
   </g>
   <g id="line2d_71">
    <path d="M 422.304348 123.624 
L 422.304348 123.624 
" clip-path="url(#peb5986d88a)" style="fill: none; stroke: #373737"/>
   </g>
   <g id="line2d_72">
    <path d="M 422.304348 116.9712 
L 422.304348 130.2768 
" clip-path="url(#peb5986d88a)" style="fill: none; stroke: #373737; stroke-linecap: square"/>
   </g>
   <g id="line2d_73">
    <path d="M 422.304348 116.9712 
L 422.304348 130.2768 
" clip-path="url(#peb5986d88a)" style="fill: none; stroke: #373737; stroke-linecap: square"/>
   </g>
   <g id="line2d_74"/>
   <g id="patch_26">
    <path d="M 422.304348 143.5824 
L 422.304348 170.1936 
L 422.304348 170.1936 
L 422.304348 143.5824 
L 422.304348 143.5824 
z
" clip-path="url(#peb5986d88a)" style="fill: #80c161; stroke: #373737; stroke-linejoin: miter"/>
   </g>
   <g id="line2d_75">
    <path d="M 422.304348 156.888 
L 422.304348 156.888 
" clip-path="url(#peb5986d88a)" style="fill: none; stroke: #373737"/>
   </g>
   <g id="line2d_76">
    <path d="M 422.304348 156.888 
L 422.304348 156.888 
" clip-path="url(#peb5986d88a)" style="fill: none; stroke: #373737"/>
   </g>
   <g id="line2d_77">
    <path d="M 422.304348 150.2352 
L 422.304348 163.5408 
" clip-path="url(#peb5986d88a)" style="fill: none; stroke: #373737; stroke-linecap: square"/>
   </g>
   <g id="line2d_78">
    <path d="M 422.304348 150.2352 
L 422.304348 163.5408 
" clip-path="url(#peb5986d88a)" style="fill: none; stroke: #373737; stroke-linecap: square"/>
   </g>
   <g id="line2d_79"/>
   <g id="patch_27">
    <path d="M 422.304348 176.8464 
L 422.304348 203.4576 
L 422.304348 203.4576 
L 422.304348 176.8464 
L 422.304348 176.8464 
z
" clip-path="url(#peb5986d88a)" style="fill: #a74779; stroke: #373737; stroke-linejoin: miter"/>
   </g>
   <g id="line2d_80">
    <path d="M 422.304348 190.152 
L 422.304348 190.152 
" clip-path="url(#peb5986d88a)" style="fill: none; stroke: #373737"/>
   </g>
   <g id="line2d_81">
    <path d="M 422.304348 190.152 
L 422.304348 190.152 
" clip-path="url(#peb5986d88a)" style="fill: none; stroke: #373737"/>
   </g>
   <g id="line2d_82">
    <path d="M 422.304348 183.4992 
L 422.304348 196.8048 
" clip-path="url(#peb5986d88a)" style="fill: none; stroke: #373737; stroke-linecap: square"/>
   </g>
   <g id="line2d_83">
    <path d="M 422.304348 183.4992 
L 422.304348 196.8048 
" clip-path="url(#peb5986d88a)" style="fill: none; stroke: #373737; stroke-linecap: square"/>
   </g>
   <g id="line2d_84"/>
   <g id="line2d_85">
    <path d="M 422.304348 43.7904 
L 422.304348 70.4016 
" clip-path="url(#peb5986d88a)" style="fill: none; stroke: #373737"/>
   </g>
   <g id="line2d_86">
    <path d="M 422.304348 77.0544 
L 422.304348 103.6656 
" clip-path="url(#peb5986d88a)" style="fill: none; stroke: #373737"/>
   </g>
   <g id="line2d_87">
    <path d="M 422.304348 110.3184 
L 422.304348 136.9296 
" clip-path="url(#peb5986d88a)" style="fill: none; stroke: #373737"/>
   </g>
   <g id="line2d_88">
    <path d="M 422.304348 143.5824 
L 422.304348 170.1936 
" clip-path="url(#peb5986d88a)" style="fill: none; stroke: #373737"/>
   </g>
   <g id="line2d_89">
    <path d="M 422.304348 176.8464 
L 422.304348 203.4576 
" clip-path="url(#peb5986d88a)" style="fill: none; stroke: #373737"/>
   </g>
   <g id="patch_28">
    <path d="M 367.717391 206.784 
L 367.717391 40.464 
" style="fill: none; stroke: #000000; stroke-width: 0.8; stroke-linejoin: miter; stroke-linecap: square"/>
   </g>
   <g id="patch_29">
    <path d="M 476.891304 206.784 
L 476.891304 40.464 
" style="fill: none; stroke: #000000; stroke-width: 0.8; stroke-linejoin: miter; stroke-linecap: square"/>
   </g>
   <g id="patch_30">
    <path d="M 367.717391 206.784 
L 476.891304 206.784 
" style="fill: none; stroke: #000000; stroke-width: 0.8; stroke-linejoin: miter; stroke-linecap: square"/>
   </g>
   <g id="patch_31">
    <path d="M 367.717391 40.464 
L 476.891304 40.464 
" style="fill: none; stroke: #000000; stroke-width: 0.8; stroke-linejoin: miter; stroke-linecap: square"/>
   </g>
   <g id="text_18">
    <!-- SSNR -->
    <g transform="translate(406.02841 34.464) scale(0.12 -0.12)">
     <defs>
      <path id="DejaVuSans-4e" d="M 628 4666 
L 1478 4666 
L 3547 763 
L 3547 4666 
L 4159 4666 
L 4159 0 
L 3309 0 
L 1241 3903 
L 1241 0 
L 628 0 
L 628 4666 
z
" transform="scale(0.015625)"/>
     </defs>
     <use xlink:href="#DejaVuSans-53"/>
     <use xlink:href="#DejaVuSans-53" x="63.476562"/>
     <use xlink:href="#DejaVuSans-4e" x="126.953125"/>
     <use xlink:href="#DejaVuSans-52" x="201.757812"/>
    </g>
   </g>
  </g>
  <g id="axes_4">
   <g id="patch_32">
    <path d="M 498.726087 206.784 
L 607.9 206.784 
L 607.9 40.464 
L 498.726087 40.464 
z
" style="fill: #ffffff"/>
   </g>
   <g id="matplotlib.axis_7">
    <g id="xtick_10">
     <g id="line2d_90">
      <g>
       <use xlink:href="#m7e8eba1cc5" x="503.688538" y="206.784" style="stroke: #000000; stroke-width: 0.8"/>
      </g>
     </g>
     <g id="text_19">
      <!-- 0.00 -->
      <g transform="translate(492.555725 221.382438) scale(0.1 -0.1)">
       <use xlink:href="#DejaVuSans-30"/>
       <use xlink:href="#DejaVuSans-2e" x="63.623047"/>
       <use xlink:href="#DejaVuSans-30" x="95.410156"/>
       <use xlink:href="#DejaVuSans-30" x="159.033203"/>
      </g>
     </g>
    </g>
    <g id="xtick_11">
     <g id="line2d_91">
      <g>
       <use xlink:href="#m7e8eba1cc5" x="549.048087" y="206.784" style="stroke: #000000; stroke-width: 0.8"/>
      </g>
     </g>
     <g id="text_20">
      <!-- 0.01 -->
      <g transform="translate(537.915275 221.382438) scale(0.1 -0.1)">
       <use xlink:href="#DejaVuSans-30"/>
       <use xlink:href="#DejaVuSans-2e" x="63.623047"/>
       <use xlink:href="#DejaVuSans-30" x="95.410156"/>
       <use xlink:href="#DejaVuSans-31" x="159.033203"/>
      </g>
     </g>
    </g>
    <g id="xtick_12">
     <g id="line2d_92">
      <g>
       <use xlink:href="#m7e8eba1cc5" x="594.407637" y="206.784" style="stroke: #000000; stroke-width: 0.8"/>
      </g>
     </g>
     <g id="text_21">
      <!-- 0.02 -->
      <g transform="translate(583.274824 221.382438) scale(0.1 -0.1)">
       <use xlink:href="#DejaVuSans-30"/>
       <use xlink:href="#DejaVuSans-2e" x="63.623047"/>
       <use xlink:href="#DejaVuSans-30" x="95.410156"/>
       <use xlink:href="#DejaVuSans-32" x="159.033203"/>
      </g>
     </g>
    </g>
   </g>
   <g id="matplotlib.axis_8">
    <g id="ytick_16">
     <g id="line2d_93">
      <g>
       <use xlink:href="#mc942444423" x="498.726087" y="57.096" style="stroke: #000000; stroke-width: 0.8"/>
      </g>
     </g>
    </g>
    <g id="ytick_17">
     <g id="line2d_94">
      <g>
       <use xlink:href="#mc942444423" x="498.726087" y="90.36" style="stroke: #000000; stroke-width: 0.8"/>
      </g>
     </g>
    </g>
    <g id="ytick_18">
     <g id="line2d_95">
      <g>
       <use xlink:href="#mc942444423" x="498.726087" y="123.624" style="stroke: #000000; stroke-width: 0.8"/>
      </g>
     </g>
    </g>
    <g id="ytick_19">
     <g id="line2d_96">
      <g>
       <use xlink:href="#mc942444423" x="498.726087" y="156.888" style="stroke: #000000; stroke-width: 0.8"/>
      </g>
     </g>
    </g>
    <g id="ytick_20">
     <g id="line2d_97">
      <g>
       <use xlink:href="#mc942444423" x="498.726087" y="190.152" style="stroke: #000000; stroke-width: 0.8"/>
      </g>
     </g>
    </g>
   </g>
   <g id="patch_33">
    <path d="M 505.231514 43.7904 
L 505.231514 70.4016 
L 507.847028 70.4016 
L 507.847028 43.7904 
L 505.231514 43.7904 
z
" clip-path="url(#p872c16465f)" style="fill: #4a4c7e; stroke: #373737; stroke-linejoin: miter"/>
   </g>
   <g id="line2d_98">
    <path d="M 505.231514 57.096 
L 504.060148 57.096 
" clip-path="url(#p872c16465f)" style="fill: none; stroke: #373737"/>
   </g>
   <g id="line2d_99">
    <path d="M 507.847028 57.096 
L 510.398162 57.096 
" clip-path="url(#p872c16465f)" style="fill: none; stroke: #373737"/>
   </g>
   <g id="line2d_100">
    <path d="M 504.060148 50.4432 
L 504.060148 63.7488 
" clip-path="url(#p872c16465f)" style="fill: none; stroke: #373737; stroke-linecap: square"/>
   </g>
   <g id="line2d_101">
    <path d="M 510.398162 50.4432 
L 510.398162 63.7488 
" clip-path="url(#p872c16465f)" style="fill: none; stroke: #373737; stroke-linecap: square"/>
   </g>
   <g id="line2d_102"/>
   <g id="patch_34">
    <path d="M 526.362375 77.0544 
L 526.362375 103.6656 
L 532.618555 103.6656 
L 532.618555 77.0544 
L 526.362375 77.0544 
z
" clip-path="url(#p872c16465f)" style="fill: #367182; stroke: #373737; stroke-linejoin: miter"/>
   </g>
   <g id="line2d_103">
    <path d="M 526.362375 90.36 
L 517.691841 90.36 
" clip-path="url(#p872c16465f)" style="fill: none; stroke: #373737"/>
   </g>
   <g id="line2d_104">
    <path d="M 532.618555 90.36 
L 532.893425 90.36 
" clip-path="url(#p872c16465f)" style="fill: none; stroke: #373737"/>
   </g>
   <g id="line2d_105">
    <path d="M 517.691841 83.7072 
L 517.691841 97.0128 
" clip-path="url(#p872c16465f)" style="fill: none; stroke: #373737; stroke-linecap: square"/>
   </g>
   <g id="line2d_106">
    <path d="M 532.893425 83.7072 
L 532.893425 97.0128 
" clip-path="url(#p872c16465f)" style="fill: none; stroke: #373737; stroke-linecap: square"/>
   </g>
   <g id="line2d_107">
    <g clip-path="url(#p872c16465f)">
     <use xlink:href="#mcb8e6cce26" x="581.982506" y="90.36" style="fill-opacity: 0; stroke: #373737"/>
    </g>
   </g>
   <g id="patch_35">
    <path d="M 507.299874 110.3184 
L 507.299874 136.9296 
L 525.031641 136.9296 
L 525.031641 110.3184 
L 507.299874 110.3184 
z
" clip-path="url(#p872c16465f)" style="fill: #33977c; stroke: #373737; stroke-linejoin: miter"/>
   </g>
   <g id="line2d_108">
    <path d="M 507.299874 123.624 
L 505.487894 123.624 
" clip-path="url(#p872c16465f)" style="fill: none; stroke: #373737"/>
   </g>
   <g id="line2d_109">
    <path d="M 525.031641 123.624 
L 543.739587 123.624 
" clip-path="url(#p872c16465f)" style="fill: none; stroke: #373737"/>
   </g>
   <g id="line2d_110">
    <path d="M 505.487894 116.9712 
L 505.487894 130.2768 
" clip-path="url(#p872c16465f)" style="fill: none; stroke: #373737; stroke-linecap: square"/>
   </g>
   <g id="line2d_111">
    <path d="M 543.739587 116.9712 
L 543.739587 130.2768 
" clip-path="url(#p872c16465f)" style="fill: none; stroke: #373737; stroke-linecap: square"/>
   </g>
   <g id="line2d_112"/>
   <g id="patch_36">
    <path d="M 509.461377 143.5824 
L 509.461377 170.1936 
L 524.325993 170.1936 
L 524.325993 143.5824 
L 509.461377 143.5824 
z
" clip-path="url(#p872c16465f)" style="fill: #80c161; stroke: #373737; stroke-linejoin: miter"/>
   </g>
   <g id="line2d_113">
    <path d="M 509.461377 156.888 
L 506.817701 156.888 
" clip-path="url(#p872c16465f)" style="fill: none; stroke: #373737"/>
   </g>
   <g id="line2d_114">
    <path d="M 524.325993 156.888 
L 526.333899 156.888 
" clip-path="url(#p872c16465f)" style="fill: none; stroke: #373737"/>
   </g>
   <g id="line2d_115">
    <path d="M 506.817701 150.2352 
L 506.817701 163.5408 
" clip-path="url(#p872c16465f)" style="fill: none; stroke: #373737; stroke-linecap: square"/>
   </g>
   <g id="line2d_116">
    <path d="M 526.333899 150.2352 
L 526.333899 163.5408 
" clip-path="url(#p872c16465f)" style="fill: none; stroke: #373737; stroke-linecap: square"/>
   </g>
   <g id="line2d_117">
    <g clip-path="url(#p872c16465f)">
     <use xlink:href="#mcb8e6cce26" x="557.20249" y="156.888" style="fill-opacity: 0; stroke: #373737"/>
    </g>
   </g>
   <g id="patch_37">
    <path d="M 503.693609 176.8464 
L 503.693609 203.4576 
L 523.589044 203.4576 
L 523.589044 176.8464 
L 503.693609 176.8464 
z
" clip-path="url(#p872c16465f)" style="fill: #a74779; stroke: #373737; stroke-linejoin: miter"/>
   </g>
   <g id="line2d_118">
    <path d="M 503.693609 190.152 
L 503.688538 190.152 
" clip-path="url(#p872c16465f)" style="fill: none; stroke: #373737"/>
   </g>
   <g id="line2d_119">
    <path d="M 523.589044 190.152 
L 527.004299 190.152 
" clip-path="url(#p872c16465f)" style="fill: none; stroke: #373737"/>
   </g>
   <g id="line2d_120">
    <path d="M 503.688538 183.4992 
L 503.688538 196.8048 
" clip-path="url(#p872c16465f)" style="fill: none; stroke: #373737; stroke-linecap: square"/>
   </g>
   <g id="line2d_121">
    <path d="M 527.004299 183.4992 
L 527.004299 196.8048 
" clip-path="url(#p872c16465f)" style="fill: none; stroke: #373737; stroke-linecap: square"/>
   </g>
   <g id="line2d_122">
    <g clip-path="url(#p872c16465f)">
     <use xlink:href="#mcb8e6cce26" x="562.20677" y="190.152" style="fill-opacity: 0; stroke: #373737"/>
     <use xlink:href="#mcb8e6cce26" x="602.937549" y="190.152" style="fill-opacity: 0; stroke: #373737"/>
    </g>
   </g>
   <g id="line2d_123">
    <path d="M 506.234955 43.7904 
L 506.234955 70.4016 
" clip-path="url(#p872c16465f)" style="fill: none; stroke: #373737"/>
   </g>
   <g id="line2d_124">
    <path d="M 531.2155 77.0544 
L 531.2155 103.6656 
" clip-path="url(#p872c16465f)" style="fill: none; stroke: #373737"/>
   </g>
   <g id="line2d_125">
    <path d="M 512.761282 110.3184 
L 512.761282 136.9296 
" clip-path="url(#p872c16465f)" style="fill: none; stroke: #373737"/>
   </g>
   <g id="line2d_126">
    <path d="M 518.345436 143.5824 
L 518.345436 170.1936 
" clip-path="url(#p872c16465f)" style="fill: none; stroke: #373737"/>
   </g>
   <g id="line2d_127">
    <path d="M 506.667559 176.8464 
L 506.667559 203.4576 
" clip-path="url(#p872c16465f)" style="fill: none; stroke: #373737"/>
   </g>
   <g id="patch_38">
    <path d="M 498.726087 206.784 
L 498.726087 40.464 
" style="fill: none; stroke: #000000; stroke-width: 0.8; stroke-linejoin: miter; stroke-linecap: square"/>
   </g>
   <g id="patch_39">
    <path d="M 607.9 206.784 
L 607.9 40.464 
" style="fill: none; stroke: #000000; stroke-width: 0.8; stroke-linejoin: miter; stroke-linecap: square"/>
   </g>
   <g id="patch_40">
    <path d="M 498.726087 206.784 
L 607.9 206.784 
" style="fill: none; stroke: #000000; stroke-width: 0.8; stroke-linejoin: miter; stroke-linecap: square"/>
   </g>
   <g id="patch_41">
    <path d="M 498.726087 40.464 
L 607.9 40.464 
" style="fill: none; stroke: #000000; stroke-width: 0.8; stroke-linejoin: miter; stroke-linecap: square"/>
   </g>
   <g id="text_22">
    <!-- SV -->
    <g transform="translate(545.399606 34.464) scale(0.12 -0.12)">
     <defs>
      <path id="DejaVuSans-56" d="M 1831 0 
L 50 4666 
L 709 4666 
L 2188 738 
L 3669 4666 
L 4325 4666 
L 2547 0 
L 1831 0 
z
" transform="scale(0.015625)"/>
     </defs>
     <use xlink:href="#DejaVuSans-53"/>
     <use xlink:href="#DejaVuSans-56" x="63.476562"/>
    </g>
   </g>
  </g>
 </g>
 <defs>
  <clipPath id="p1576d173ca">
   <rect x="105.7" y="40.464" width="109.173913" height="166.32"/>
  </clipPath>
  <clipPath id="p399b83d3a1">
   <rect x="236.708696" y="40.464" width="109.173913" height="166.32"/>
  </clipPath>
  <clipPath id="peb5986d88a">
   <rect x="367.717391" y="40.464" width="109.173913" height="166.32"/>
  </clipPath>
  <clipPath id="p872c16465f">
   <rect x="498.726087" y="40.464" width="109.173913" height="166.32"/>
  </clipPath>
 </defs>
</svg>
